<svg xmlns="http://www.w3.org/2000/svg" width="1600" height="700" viewBox="0 0 1600 700" role="img" aria-labelledby="title desc"><title id="title">tars-remote</title><desc id="desc">A local network media remote connecting an Android phone to a Linux desktop receiver</desc><defs><linearGradient id="bg" x1="0" y1="0" x2="1" y2="1"><stop stop-color="#020617"/><stop offset="1" stop-color="#071a36"/></linearGradient><linearGradient id="accent" x1="0" y1="0" x2="1" y2="0"><stop stop-color="#22d3ee"/><stop offset="1" stop-color="#2dd4bf"/></linearGradient><filter id="glow"><feGaussianBlur stdDeviation="9" result="b"/><feMerge><feMergeNode in="b"/><feMergeNode in="SourceGraphic"/></feMerge></filter></defs><rect width="1600" height="700" fill="url(#bg)"/><g opacity=".18" stroke="#38bdf8"><path d="M0 580C260 490 420 650 680 550S1130 430 1600 560"/><path d="M0 620C280 520 460 690 730 590s430-120 870 20"/><path d="M0 660C300 570 500 710 780 630s440-90 820 20"/></g><text x="95" y="145" fill="url(#accent)" font-family="Arial, Helvetica, sans-serif" font-size="88" font-weight="700">tars-remote</text><text x="100" y="210" fill="#cbd5e1" font-family="Arial, Helvetica, sans-serif" font-size="30">LAN-first Android media remote and Linux receiver</text><g transform="translate(110 285)"><rect width="320" height="310" rx="48" fill="#071225" stroke="#22d3ee" stroke-width="4"/><rect x="25" y="28" width="270" height="254" rx="28" fill="#0b1730" stroke="#164e63"/><circle cx="160" cy="130" r="72" fill="#06131f" stroke="#2dd4bf" stroke-width="4"/><path d="M145 97l58 33-58 34z" fill="#2dd4bf" filter="url(#glow)"/><path d="M90 220h140" stroke="#22d3ee" stroke-width="10" stroke-linecap="round"/><circle cx="183" cy="220" r="14" fill="#67e8f9"/><text x="160" y="270" text-anchor="middle" fill="#94a3b8" font-family="Arial" font-size="20">ANDROID REMOTE</text></g><g transform="translate(1090 275)"><rect width="410" height="250" rx="28" fill="#071225" stroke="#38bdf8" stroke-width="4"/><rect x="25" y="30" width="360" height="165" rx="18" fill="#0b1730" stroke="#164e63"/><rect x="55" y="62" width="110" height="94" rx="12" fill="#102a43"/><circle cx="110" cy="109" r="30" fill="none" stroke="#22d3ee" stroke-width="4"/><path d="M101 92l28 17-28 17z" fill="#2dd4bf"/><text x="190" y="88" fill="#f8fafc" font-family="Arial" font-size="27">Now playing</text><text x="190" y="125" fill="#94a3b8" font-family="Arial" font-size="21">Local media session</text><path d="M190 155h155" stroke="#334155" stroke-width="10" stroke-linecap="round"/><path d="M190 155h92" stroke="#22d3ee" stroke-width="10" stroke-linecap="round"/><path d="M170 250h70l20 72H150z" fill="#0b1730" stroke="#38bdf8" stroke-width="4"/><path d="M90 322h230" stroke="#38bdf8" stroke-width="8" stroke-linecap="round"/><text x="205" y="225" text-anchor="middle" fill="#94a3b8" font-family="Arial" font-size="20">LINUX RECEIVER</text></g><g transform="translate(520 280)" fill="none" stroke="url(#accent)" stroke-width="5" filter="url(#glow)"><path d="M0 170h155M405 170h155" stroke-dasharray="12 16"/><circle cx="280" cy="170" r="115" stroke="#0e7490"/><circle cx="280" cy="170" r="82" stroke="#0891b2"/><path d="M235 160c25-28 65-28 90 0M250 180c17-18 43-18 60 0"/><circle cx="280" cy="205" r="9" fill="#2dd4bf" stroke="none"/><path d="M155 170l28-18v36zM405 170l-28-18v36z" fill="#22d3ee" stroke="none"/></g><text x="800" y="560" text-anchor="middle" fill="#e2e8f0" font-family="Arial, Helvetica, sans-serif" font-size="28">WebSocket commands · mDNS discovery · Manual IP fallback · Port 8765</text><g transform="translate(505 600)" font-family="Arial, Helvetica, sans-serif" font-size="20" fill="#94a3b8"><text x="0" y="0">Kotlin · Jetpack Compose · MVVM</text><text x="430" y="0">Python · tkinter · websockets · MPRIS2</text></g><text x="800" y="650" text-anchor="middle" fill="#64748b" font-family="Arial, Helvetica, sans-serif" font-size="18">Designed for trusted local networks</text></svg>